<?xml version="1.0" encoding="UTF-8"?>
<svg enable-background="new 0 0 1024 1024" version="1.1" viewBox="0 0 1024 1024" xml:space="preserve" xmlns="http://www.w3.org/2000/svg">
<path d="m434.2 480.4c11.05-0.5686 22.05-0.5814 33.05-0.6062 11.16-0.0251 9.487 0.6664 9.763-8.848 3.314-0.6511 6.585-0.781 10.63-0.9416 0-12.43 0-24.41 2.4e-4 -36.94 42.39-0.5781 84.78-0.613 127.8-0.6042 0.6349 53.34 0.6476 106.6 0.637 160.5-60.21 0.5682-120.4 0.5888-181.2 0.589-0.6496-37.54-0.6864-75.06-0.6823-113.1z" fill="#0049eb" stroke-width="1.259"/>
<path d="m657 121.2c31.71-0.0487 63.41-0.0974 95.58 0.385 0.4573 29.31 0.4573 58.09 0.4573 87.58h-71.64v119.6h191.8v-71.71h87.67c0.0543 6.65 0.155 13.3 0.1558 19.95 7e-3 59.72-4e-3 119.4-0.5407 179.6-21.31 0.4573-42.09 0.4573-63.57 0.4573v72.18h-144v71.96h-72.14v39.97h-71.97v64.14h-71.96v71.79h-71.96v72.14h-31.97v39.98h-31.89v23.67c-34.37 0.0487-68.75 0.0975-103.6-0.385-0.4573-29.31-0.4573-58.09-0.4573-87.58h71.64v-79.56h-183.8v71.71h-87.67c-0.0543-30.08-0.119-60.16-0.1585-90.24-0.01966-14.96 0.0068-29.92 0.5435-45.33 18.64-0.4573 36.76-0.4573 55.58-0.4573v-72.19h71.97v-71.97h72.15v-71.97h71.97v-64.14h71.97v-39.8h39.98v-32.16h31.98v-79.97h64.14v-63.97h39.8v-39.98h39.89v-23.68m-207.5 359.9v104l7.85 0.0207 0.0112 7.871c45.62 0 90.64 0 136.6 0.0297 7.184 0.0222 7.114 0.0883 7.114 0.0883s-2e-3 -7.663-2e-3 -9.058c-0.0138-44.99-0.0276-97.19-3e-3 -143.1l-7.016 0.0828c-0.327 4e-3 -0.6538 0.0167-1.915-6.1e-4 -31.68 5e-3 -63.35 0.0109-95.93-8e-3l-7.101 0.1056-6.4e-4 4.721 0.2557 35.11z" fill="#004462"/>














</svg>
